<svg width="7" height="12" viewBox="0 0 7 12" fill="none" xmlns="http://www.w3.org/2000/svg">
<path d="M5.32305 11.3083L0.408464 6.40833C0.35013 6.35 0.308908 6.28681 0.284797 6.21875C0.260297 6.15069 0.248047 6.07778 0.248047 6C0.248047 5.92222 0.260297 5.84931 0.284797 5.78125C0.308908 5.71319 0.35013 5.65 0.408464 5.59167L5.32305 0.677082C5.45916 0.540971 5.6293 0.472916 5.83346 0.472916C6.03763 0.472916 6.21263 0.545832 6.35846 0.691666C6.5043 0.837499 6.57721 1.00764 6.57721 1.20208C6.57721 1.39653 6.5043 1.56667 6.35846 1.7125L2.07096 6L6.35846 10.2875C6.49457 10.4236 6.56263 10.5912 6.56263 10.7903C6.56263 10.9898 6.48971 11.1625 6.34388 11.3083C6.19805 11.4542 6.02791 11.5271 5.83346 11.5271C5.63902 11.5271 5.46888 11.4542 5.32305 11.3083Z" fill="#053354"/>
</svg>
