<svg width="16" height="16" viewBox="0 0 16 16" xmlns="http://www.w3.org/2000/svg">
<path d="M9.91667 1.93332L15.5333 7.53332C15.6 7.59998 15.6471 7.6722 15.6747 7.74998C15.7027 7.82776 15.7167 7.91109 15.7167 7.99998C15.7167 8.08887 15.7027 8.1722 15.6747 8.24998C15.6471 8.32776 15.6 8.39998 15.5333 8.46665L9.91667 14.0833C9.76112 14.2389 9.56667 14.3167 9.33334 14.3167C9.10001 14.3167 8.90001 14.2333 8.73334 14.0667C8.56668 13.9 8.48334 13.7055 8.48334 13.4833C8.48334 13.2611 8.56668 13.0667 8.73334 12.9L13.6333 7.99998L8.73334 3.09998C8.57779 2.94443 8.50001 2.75287 8.50001 2.52532C8.50001 2.29732 8.58334 2.09998 8.75001 1.93332C8.91667 1.76665 9.11112 1.68332 9.33334 1.68332C9.55556 1.68332 9.75001 1.76665 9.91667 1.93332Z" fill="#053354"/>
</svg>
