<svg width="30" height="30" viewBox="0 0 30 30" fill="none" xmlns="http://www.w3.org/2000/svg">
<path d="M13.95 29.55C12.75 28.35 3 18.3 3 12C3 5.4 8.4 0 15 0C21.6 0 27 5.4 27 12C27 18.3 17.25 28.35 16.05 29.55C15.45 30.15 14.55 30.15 13.95 29.55ZM15 3C10.05 3 6 7.05 6 12C6 15.75 11.7 22.8 15 26.25C18.3 22.8 24 15.75 24 12C24 7.05 19.95 3 15 3Z" fill="#18A4E1"/>
<path d="M15 15C16.6569 15 18 13.6569 18 12C18 10.3431 16.6569 9 15 9C13.3431 9 12 10.3431 12 12C12 13.6569 13.3431 15 15 15Z" fill="#18A4E1"/>
</svg>
